<?xml version="1.0" encoding="UTF-8"?>
<svg id="Layer_1" xmlns="http://www.w3.org/2000/svg" version="1.1" xmlns:sketch="http://www.bohemiancoding.com/sketch/ns" viewBox="0 0 20 20">
  <!-- Generator: Adobe Illustrator 29.5.0, SVG Export Plug-In . SVG Version: 2.1.0 Build 137)  -->
  <defs>
    <style>
      .st0 {
        fill: #4b1e78;
        fill-rule: evenodd;
      }
    </style>
  </defs>
  <g id="Page-1">
    <g id="Core">
      <g id="shopping-cart">
        <path id="Shape" class="st0" d="M6,16c-1.1,0-2,.9-2,2s.9,2,2,2,2-.9,2-2-.9-2-2-2h0ZM0,0V2h2l3.6,7.6-1.4,2.4c-.1.3-.2.7-.2,1,0,1.1.9,2,2,2h12v-2H6.4c-.1,0-.2-.1-.2-.2v-.1l.9-1.7h7.4c.8,0,1.4-.4,1.7-1l3.6-6.5c.2-.2.2-.3.2-.5,0-.6-.4-1-1-1H4.2L3.3,0H0ZM16,16c-1.1,0-2,.9-2,2s.9,2,2,2,2-.9,2-2-.9-2-2-2h0Z"/>
      </g>
    </g>
  </g>
</svg>