<?xml version="1.0" encoding="UTF-8"?>
<svg id="Layer_1" xmlns="http://www.w3.org/2000/svg" version="1.1" viewBox="0 0 512 512">
  <!-- Generator: Adobe Illustrator 29.5.0, SVG Export Plug-In . SVG Version: 2.1.0 Build 137)  -->
  <defs>
    <style>
      .st0 {
        fill: #4b1e78;
      }
    </style>
  </defs>
  <path class="st0" d="M456.69,421.39l-94.09-94.09c22.65-30.16,34.88-66.86,34.84-104.58,0-96.34-78.38-174.72-174.72-174.72S48,126.38,48,222.72s78.38,174.72,174.72,174.72c37.72.04,74.42-12.19,104.58-34.84l94.09,94.09c10.29,9.2,26.1,8.32,35.3-1.98,8.48-9.49,8.48-23.83,0-33.32h0ZM97.92,222.72c0-68.93,55.87-124.8,124.8-124.8s124.8,55.87,124.8,124.8-55.87,124.8-124.8,124.8c-68.89-.08-124.72-55.91-124.8-124.8Z"/>
</svg>